<svg width="100%" height="100%" viewBox="0 0 24 24" fill="none" xmlns="http://www.w3.org/2000/svg">
<path d="M13.335 2.34563L20.9053 9.37688C21.1084 9.54875 21.2646 9.7675 21.374 10.0331C21.4834 10.2831 21.5381 10.5409 21.5381 10.8066V20.2284C21.5381 20.7753 21.3428 21.2363 20.9521 21.6113C20.5771 21.9863 20.124 22.1738 19.5928 22.1738H16.1006C15.6787 22.1738 15.3193 22.0253 15.0225 21.7284C14.7256 21.4316 14.5771 21.0722 14.5771 20.6503V15.5175C14.5771 15.5019 14.5693 15.4863 14.5537 15.4706C14.5381 15.455 14.5225 15.4472 14.5068 15.4472H9.49121C9.45996 15.4472 9.43652 15.455 9.4209 15.4706C9.4209 15.4863 9.4209 15.5019 9.4209 15.5175V20.6503C9.4209 21.0722 9.26465 21.4316 8.95215 21.7284C8.65527 22.0253 8.2959 22.1738 7.87402 22.1738H4.40527C3.8584 22.1738 3.39746 21.9863 3.02246 21.6113C2.64746 21.2206 2.45996 20.7597 2.45996 20.2284V10.8066C2.45996 10.5253 2.51465 10.2597 2.62402 10.0097C2.7334 9.75969 2.88965 9.54094 3.09277 9.35344L10.6631 2.34563C11.0381 2.00188 11.4834 1.83 11.999 1.83C12.5146 1.83 12.96 2.00188 13.335 2.34563ZM12.3037 3.44719C12.2256 3.36906 12.124 3.33 11.999 3.33C11.874 3.33 11.7725 3.36906 11.6943 3.44719L4.10059 10.4784C4.05371 10.5097 4.01465 10.5566 3.9834 10.6191C3.96777 10.6816 3.95996 10.7441 3.95996 10.8066V20.2284C3.95996 20.3534 3.99902 20.4628 4.07715 20.5566C4.1709 20.6347 4.28027 20.6738 4.40527 20.6738H7.87402C7.88965 20.6738 7.89746 20.6738 7.89746 20.6738C7.89746 20.6581 7.89746 20.6503 7.89746 20.6503C7.91309 20.6503 7.9209 20.6503 7.9209 20.6503V15.5175C7.9209 15.08 8.06934 14.7128 8.36621 14.4159C8.67871 14.1034 9.05371 13.9472 9.49121 13.9472H14.5068C14.9443 13.9472 15.3115 14.1034 15.6084 14.4159C15.9209 14.7128 16.0771 15.08 16.0771 15.5175V20.6503C16.0771 20.6503 16.0771 20.6581 16.0771 20.6738C16.0771 20.6738 16.085 20.6738 16.1006 20.6738H19.5928C19.7178 20.6738 19.8193 20.6347 19.8975 20.5566C19.9912 20.4628 20.0381 20.3534 20.0381 20.2284V10.8066C20.0381 10.7441 20.0225 10.6894 19.9912 10.6425C19.9756 10.58 19.9443 10.5253 19.8975 10.4784L12.3037 3.44719Z" fill="currentColor"/>
</svg>
