<svg width="100%" height="100%" viewBox="0 0 24 24" fill="none" xmlns="http://www.w3.org/2000/svg">
<path d="M22.1016 21.0469H22.0781L21.0234 22.1016L15.9375 17.0156C15.6094 17.2969 15.2578 17.5547 14.8828 17.7891C14.5234 18.0078 14.1328 18.2109 13.7109 18.3984C13.1797 18.6172 12.625 18.7891 12.0469 18.9141C11.4844 19.0234 10.8984 19.0781 10.2891 19.0781C9.67969 19.0781 9.08594 19.0234 8.50781 18.9141C7.94531 18.7891 7.39844 18.6172 6.86719 18.3984C6.35156 18.1641 5.85938 17.8906 5.39062 17.5781C4.92188 17.2656 4.48438 16.9141 4.07812 16.5234C3.6875 16.1172 3.32812 15.6797 3 15.2109C2.6875 14.7422 2.41406 14.2422 2.17969 13.7109C1.96094 13.1797 1.78906 12.625 1.66406 12.0469C1.55469 11.4688 1.5 10.8828 1.5 10.2891C1.5 9.67969 1.55469 9.09375 1.66406 8.53125C1.78906 7.95312 1.96094 7.39844 2.17969 6.86719C2.41406 6.33594 2.6875 5.83594 3 5.36719C3.32812 4.89844 3.6875 4.46875 4.07812 4.07812C4.48438 3.67188 4.92188 3.3125 5.39062 3C5.85938 2.6875 6.35156 2.42188 6.86719 2.20312C7.39844 1.96875 7.95312 1.79688 8.53125 1.6875C9.10938 1.5625 9.69531 1.5 10.2891 1.5C10.8984 1.5 11.4844 1.5625 12.0469 1.6875C12.625 1.79688 13.1797 1.96875 13.7109 2.20312C14.2422 2.42188 14.7422 2.6875 15.2109 3C15.6797 3.3125 16.1094 3.67188 16.5 4.07812C16.9062 4.46875 17.2656 4.89844 17.5781 5.36719C17.8906 5.83594 18.1641 6.33594 18.3984 6.86719C18.6328 7.39844 18.8047 7.95312 18.9141 8.53125C19.0234 9.09375 19.0781 9.67969 19.0781 10.2891C19.0781 10.8984 19.0234 11.4922 18.9141 12.0703C18.8047 12.6328 18.6328 13.1797 18.3984 13.7109C18.2109 14.1328 18 14.5312 17.7656 14.9062C17.5469 15.2656 17.3047 15.6172 17.0391 15.9609L22.1016 21.0469ZM13.1484 17.0156C13.5859 16.8125 14 16.5859 14.3906 16.3359C14.7812 16.0703 15.1406 15.7734 15.4688 15.4453C15.7969 15.1172 16.0859 14.7578 16.3359 14.3672C16.6016 13.9766 16.8281 13.5625 17.0156 13.125C17.2188 12.6875 17.3672 12.2344 17.4609 11.7656C17.5547 11.2812 17.6016 10.7891 17.6016 10.2891C17.6016 9.78906 17.5547 9.30469 17.4609 8.83594C17.3672 8.35156 17.2188 7.89062 17.0156 7.45312C16.8281 7 16.6016 6.58594 16.3359 6.21094C16.0859 5.83594 15.7969 5.48438 15.4688 5.15625C15.1406 4.8125 14.7812 4.51562 14.3906 4.26562C14 4 13.5859 3.77344 13.1484 3.58594C12.7109 3.38281 12.25 3.23438 11.7656 3.14062C11.2969 3.03125 10.8125 2.97656 10.3125 2.97656C9.79688 2.97656 9.30469 3.03125 8.83594 3.14062C8.36719 3.23438 7.91406 3.38281 7.47656 3.58594C7.02344 3.75781 6.60156 3.97656 6.21094 4.24219C5.83594 4.50781 5.48438 4.8125 5.15625 5.15625C4.82812 5.48438 4.53125 5.83594 4.26562 6.21094C4 6.58594 3.77344 7 3.58594 7.45312C3.39844 7.89062 3.25781 8.34375 3.16406 8.8125C3.07031 9.28125 3.02344 9.77344 3.02344 10.2891C3.02344 10.7891 3.07031 11.2812 3.16406 11.7656C3.25781 12.2344 3.39844 12.6875 3.58594 13.125C3.77344 13.5625 4 13.9766 4.26562 14.3672C4.53125 14.7578 4.82812 15.1172 5.15625 15.4453C5.48438 15.7734 5.83594 16.0703 6.21094 16.3359C6.60156 16.5859 7.02344 16.8125 7.47656 17.0156C7.91406 17.2031 8.36719 17.3438 8.83594 17.4375C9.32031 17.5312 9.8125 17.5781 10.3125 17.5781C10.8125 17.5781 11.2969 17.5312 11.7656 17.4375C12.25 17.3438 12.7109 17.2031 13.1484 17.0156Z" fill="currentColor"/>
</svg>
