<svg width="100%" height="100%" viewBox="0 0 24 24" fill="none" xmlns="http://www.w3.org/2000/svg">
<path d="M12 3.79684C13.1094 3.79684 14.1484 4.00778 15.1172 4.42966C16.0859 4.85153 16.9297 5.42966 17.6484 6.16403C18.3828 6.88278 18.9609 7.72653 19.3828 8.69528C19.7891 9.66403 19.9922 10.7031 19.9922 11.8125C19.9922 12.6718 19.8672 13.4922 19.6172 14.2734C19.3516 15.0703 18.9766 15.8047 18.4922 16.4765C18.0234 17.1328 17.4531 17.7187 16.7812 18.2343C16.1094 18.7343 15.3672 19.1172 14.5547 19.3828C14.3516 19.4297 14.2031 19.4062 14.1094 19.3125C14.0312 19.2187 13.9922 19.1172 13.9922 19.0078C13.9922 18.8828 13.9922 18.625 13.9922 18.2343C14.0078 17.8281 14.0156 17.3515 14.0156 16.8047C14.0156 16.4297 13.9609 16.125 13.8516 15.8906C13.7422 15.6406 13.6172 15.4531 13.4766 15.3281C14.3672 15.2343 15.1953 14.9375 15.9609 14.4375C16.7266 13.9375 17.1094 12.9218 17.1094 11.3906C17.1094 10.9375 17.0391 10.539 16.8984 10.1953C16.7578 9.83591 16.5547 9.51559 16.2891 9.23434C16.3359 9.14059 16.3906 8.90622 16.4531 8.53122C16.5156 8.14059 16.4375 7.66403 16.2188 7.10153C16.2188 7.10153 16.0391 7.10934 15.6797 7.12497C15.3359 7.14059 14.7812 7.40622 14.0156 7.92184C13.7031 7.84372 13.375 7.78122 13.0312 7.73434C12.7031 7.68747 12.3672 7.66403 12.0234 7.66403C11.6797 7.66403 11.3359 7.68747 10.9922 7.73434C10.6641 7.78122 10.3438 7.84372 10.0312 7.92184C9.26562 7.40622 8.70312 7.14059 8.34375 7.12497C8 7.10934 7.82812 7.10153 7.82812 7.10153C7.60938 7.66403 7.53125 8.14059 7.59375 8.53122C7.65625 8.90622 7.70312 9.14059 7.73438 9.23434C7.48438 9.51559 7.28125 9.83591 7.125 10.1953C6.98438 10.5547 6.91406 10.9531 6.91406 11.3906C6.91406 12.9218 7.29688 13.9375 8.0625 14.4375C8.84375 14.9375 9.67969 15.2343 10.5703 15.3281C10.4453 15.4375 10.3359 15.5781 10.2422 15.75C10.1484 15.9218 10.0859 16.1406 10.0547 16.4062C9.82031 16.5156 9.46094 16.5859 8.97656 16.6172C8.49219 16.6328 8.07031 16.3437 7.71094 15.75C7.64844 15.625 7.50781 15.4531 7.28906 15.2343C7.07031 15.0156 6.80469 14.914 6.49219 14.9297C6.14844 14.9297 6.02344 15 6.11719 15.1406C6.22656 15.2812 6.35156 15.3828 6.49219 15.4453C6.66406 15.539 6.82812 15.7265 6.98438 16.0078C7.15625 16.2734 7.26562 16.4687 7.3125 16.5937C7.39062 16.8125 7.60938 17.0703 7.96875 17.3672C8.32812 17.6484 9.00781 17.7031 10.0078 17.5312C10.0078 17.8593 10.0078 18.164 10.0078 18.4453C10.0234 18.7265 10.0312 18.914 10.0312 19.0078C10.0312 19.1172 9.98438 19.2187 9.89062 19.3125C9.8125 19.4062 9.67188 19.4297 9.46875 19.3828C8.65625 19.1172 7.91406 18.7343 7.24219 18.2343C6.57031 17.7343 5.99219 17.1562 5.50781 16.5C5.02344 15.8281 4.65625 15.0937 4.40625 14.2968C4.14062 13.5 4.00781 12.6718 4.00781 11.8125C4.00781 10.7031 4.21094 9.66403 4.61719 8.69528C5.03906 7.72653 5.60938 6.88278 6.32812 6.16403C7.0625 5.42966 7.91406 4.85153 8.88281 4.42966C9.85156 4.00778 10.8906 3.79684 12 3.79684Z" fill="currentColor"/>
</svg>
