<svg width="100%" height="100%" viewBox="0 0 24 24" fill="none" xmlns="http://www.w3.org/2000/svg">
<path d="M18.0234 7.05466C18.4922 7.74216 18.8984 8.45309 19.2422 9.18747C19.5859 9.92184 19.8594 10.6797 20.0625 11.4609C20.2812 12.2422 20.4219 13.0468 20.4844 13.875C20.5625 14.7187 20.5547 15.5859 20.4609 16.4765C20.4609 16.4765 20.4609 16.4843 20.4609 16.5C20.4609 16.5 20.4531 16.5 20.4375 16.5C19.8125 16.9687 19.1484 17.3828 18.4453 17.7422C17.7578 18.0859 17.0469 18.3672 16.3125 18.5859C16.2969 18.6015 16.2891 18.6093 16.2891 18.6093C16.2891 18.6093 16.2812 18.6015 16.2656 18.5859C16.2656 18.5859 16.2578 18.5859 16.2422 18.5859C16.0859 18.3672 15.9375 18.1406 15.7969 17.9062C15.6562 17.6718 15.5234 17.4375 15.3984 17.2031C15.3984 17.1875 15.3984 17.1797 15.3984 17.1797C15.3984 17.164 15.3984 17.1562 15.3984 17.1562C15.4141 17.1562 15.4219 17.1484 15.4219 17.1328C15.4219 17.1328 15.4297 17.1328 15.4453 17.1328C15.6641 17.0547 15.875 16.9609 16.0781 16.8515C16.2969 16.7422 16.5156 16.6328 16.7344 16.5234C16.7344 16.5078 16.7344 16.5 16.7344 16.5C16.75 16.5 16.7578 16.5 16.7578 16.5C16.7578 16.4843 16.7578 16.4765 16.7578 16.4765C16.7578 16.4609 16.75 16.4531 16.7344 16.4531C16.7344 16.4375 16.7344 16.4297 16.7344 16.4297C16.6875 16.3984 16.6406 16.3672 16.5938 16.3359C16.5469 16.3047 16.5078 16.2656 16.4766 16.2187C16.4766 16.2187 16.4688 16.2187 16.4531 16.2187C16.4375 16.2187 16.4297 16.2187 16.4297 16.2187C15.7578 16.5312 15.0703 16.7656 14.3672 16.9218C13.6797 17.0781 12.9844 17.1562 12.2812 17.1562C11.5781 17.1562 10.875 17.0781 10.1719 16.9218C9.46875 16.7656 8.78125 16.5312 8.10938 16.2187C8.10938 16.2187 8.10156 16.2187 8.08594 16.2187C8.07031 16.2187 8.0625 16.2187 8.0625 16.2187C8.01562 16.2656 7.96875 16.3047 7.92188 16.3359C7.875 16.3672 7.83594 16.3984 7.80469 16.4297C7.80469 16.4297 7.79688 16.4375 7.78125 16.4531C7.78125 16.4531 7.78125 16.4609 7.78125 16.4765C7.78125 16.4765 7.78125 16.4843 7.78125 16.5C7.78125 16.5 7.78125 16.5078 7.78125 16.5234C7.79688 16.5234 7.80469 16.5234 7.80469 16.5234C8.00781 16.6328 8.21875 16.7422 8.4375 16.8515C8.65625 16.9609 8.875 17.0547 9.09375 17.1328C9.10938 17.1328 9.11719 17.1328 9.11719 17.1328C9.11719 17.1484 9.11719 17.1562 9.11719 17.1562C9.11719 17.1562 9.11719 17.164 9.11719 17.1797C9.11719 17.1797 9.11719 17.1875 9.11719 17.2031C8.99219 17.4375 8.85938 17.6718 8.71875 17.9062C8.57812 18.1406 8.42969 18.3672 8.27344 18.5859C8.27344 18.5859 8.26562 18.5859 8.25 18.5859C8.25 18.6015 8.24219 18.6093 8.22656 18.6093C7.47656 18.375 6.75 18.0859 6.04688 17.7422C5.35938 17.3828 4.71094 16.9687 4.10156 16.5C4.08594 16.5 4.07812 16.5 4.07812 16.5C4.07812 16.4843 4.07812 16.4765 4.07812 16.4765C4 15.6953 3.98438 14.9218 4.03125 14.1562C4.07812 13.375 4.19531 12.5937 4.38281 11.8125C4.57031 11.0312 4.83594 10.2422 5.17969 9.44528C5.53906 8.66403 5.98438 7.86716 6.51562 7.05466C6.51562 7.05466 6.52344 7.05466 6.53906 7.05466C7.07031 6.80466 7.61719 6.59372 8.17969 6.42184C8.74219 6.23434 9.3125 6.09372 9.89062 5.99997C9.90625 5.99997 9.91406 5.99997 9.91406 5.99997C9.91406 5.99997 9.92188 5.99997 9.9375 5.99997C9.9375 5.99997 9.9375 6.00778 9.9375 6.02341C9.95312 6.02341 9.96094 6.02341 9.96094 6.02341C10.0391 6.16403 10.1094 6.30466 10.1719 6.44528C10.25 6.58591 10.3203 6.73434 10.3828 6.89059C11.0078 6.79684 11.6328 6.74997 12.2578 6.74997C12.8984 6.74997 13.5312 6.79684 14.1562 6.89059C14.2188 6.73434 14.2812 6.58591 14.3438 6.44528C14.4219 6.30466 14.5 6.16403 14.5781 6.02341C14.5938 6.00778 14.6016 5.99997 14.6016 5.99997C14.6172 5.99997 14.625 5.99997 14.625 5.99997C15.2188 6.09372 15.7969 6.23434 16.3594 6.42184C16.9219 6.59372 17.4688 6.80466 18 7.05466C18.0156 7.05466 18.0234 7.05466 18.0234 7.05466ZM9.51562 14.6015C9.9375 14.6015 10.2891 14.4375 10.5703 14.1093C10.8672 13.7812 11.0156 13.3906 11.0156 12.9375C11.0156 12.4687 10.8672 12.0781 10.5703 11.7656C10.2891 11.4375 9.9375 11.2734 9.51562 11.2734C9.10938 11.2734 8.75781 11.4375 8.46094 11.7656C8.17969 12.0781 8.03906 12.4687 8.03906 12.9375C8.03906 13.3906 8.17969 13.7812 8.46094 14.1093C8.75781 14.4375 9.10938 14.6015 9.51562 14.6015ZM15.0234 14.6015C15.4453 14.6015 15.7969 14.4375 16.0781 14.1093C16.3594 13.7812 16.5 13.3906 16.5 12.9375C16.5156 12.4687 16.375 12.0781 16.0781 11.7656C15.7969 11.4375 15.4453 11.2734 15.0234 11.2734C14.6016 11.2734 14.25 11.4375 13.9688 11.7656C13.6875 12.0781 13.5469 12.4687 13.5469 12.9375C13.5469 13.3906 13.6875 13.7812 13.9688 14.1093C14.2656 14.4375 14.6172 14.6015 15.0234 14.6015Z" fill="currentColor"/>
</svg>
