<svg width="100%" height="100%" viewBox="0 0 24 24" fill="none" xmlns="http://www.w3.org/2000/svg">
<path d="M7.00781 5.74219C7.00781 4.99219 7.27344 4.35156 7.80469 3.82031C8.33594 3.27344 8.98438 3 9.75 3H18.2578C19.0078 3 19.6484 3.27344 20.1797 3.82031C20.7266 4.35156 21 4.99219 21 5.74219V14.25C21 15.0156 20.7266 15.6719 20.1797 16.2188C19.6484 16.75 19.0078 17.0156 18.2578 17.0156H16.9922V18.2578C16.9922 19.0078 16.7266 19.6562 16.1953 20.2031C15.6641 20.7344 15.0156 21 14.25 21H5.74219C4.99219 21 4.34375 20.7344 3.79688 20.2031C3.26562 19.6562 3 19.0078 3 18.2578V9.75C3 8.98438 3.26562 8.33594 3.79688 7.80469C4.34375 7.27344 4.99219 7.00781 5.74219 7.00781H7.00781V5.74219ZM5.74219 8.50781C5.39844 8.50781 5.10156 8.63281 4.85156 8.88281C4.61719 9.11719 4.5 9.40625 4.5 9.75V18.2578C4.5 18.6016 4.61719 18.8984 4.85156 19.1484C5.10156 19.3828 5.39844 19.5 5.74219 19.5H14.25C14.5938 19.5 14.8828 19.3828 15.1172 19.1484C15.3672 18.8984 15.4922 18.6016 15.4922 18.2578V9.75C15.4922 9.40625 15.3672 9.11719 15.1172 8.88281C14.8828 8.63281 14.5938 8.50781 14.25 8.50781H5.74219ZM16.9922 15.5156H18.2578C18.6016 15.5156 18.8906 15.3984 19.125 15.1641C19.375 14.9141 19.5 14.6094 19.5 14.25V5.74219C19.5 5.39844 19.375 5.10938 19.125 4.875C18.8906 4.625 18.6016 4.5 18.2578 4.5H9.75C9.40625 4.5 9.10938 4.625 8.85938 4.875C8.625 5.10938 8.50781 5.39844 8.50781 5.74219V7.00781H14.25C15.0156 7.00781 15.6641 7.27344 16.1953 7.80469C16.7266 8.33594 16.9922 8.98438 16.9922 9.75V15.5156Z" fill="currentColor"/>
</svg>
