<svg width="100%" height="100%" viewBox="0 0 24 24" fill="none" xmlns="http://www.w3.org/2000/svg">
<path d="M16.1031 13.8842C16.275 13.775 16.4469 13.7204 16.6189 13.7204C16.7908 13.7204 16.9315 13.7438 17.0409 13.7906H17.0643C17.9552 14.1183 18.7055 14.5474 19.315 15.078C19.9246 15.5929 20.4169 16.1937 20.7921 16.8803C21.1672 17.5357 21.4251 18.2457 21.5657 19.0103C21.722 19.7749 21.8002 20.5552 21.8002 21.351C21.8002 21.5538 21.722 21.7333 21.5657 21.8893C21.4251 22.0298 21.2531 22.1 21.05 22.1C20.8311 22.1 20.6514 22.0298 20.5107 21.8893C20.3701 21.7333 20.2997 21.5538 20.2997 21.351C20.2997 20.6332 20.2372 19.9622 20.1122 19.338C19.9871 18.6982 19.7761 18.1209 19.4791 17.6059C19.2134 17.1222 18.8539 16.6852 18.4007 16.2951C17.963 15.8894 17.4004 15.5461 16.7126 15.2652C16.0249 15.6554 15.2825 15.9596 14.4854 16.1781C13.6882 16.3966 12.8598 16.5058 12.0002 16.5058C11.1405 16.5058 10.3122 16.3966 9.51503 16.1781C8.7179 15.9596 7.96766 15.6554 7.26431 15.2652C6.57659 15.5461 6.0061 15.8816 5.55283 16.2717C5.11519 16.6618 4.76351 17.1066 4.4978 17.6059C4.21646 18.1209 4.01327 18.6982 3.88823 19.338C3.76319 19.9622 3.70067 20.6332 3.70067 21.351C3.70067 21.5538 3.62252 21.7333 3.46622 21.8893C3.32555 22.0298 3.15362 22.1 2.95043 22.1C2.73161 22.1 2.55187 22.0298 2.4112 21.8893C2.27053 21.7333 2.2002 21.5538 2.2002 21.351C2.2002 20.5552 2.27053 19.7827 2.4112 19.0337C2.55187 18.2691 2.80976 17.5513 3.18488 16.8803C3.54437 16.1937 4.0289 15.5929 4.63847 15.078C5.26367 14.5474 6.02954 14.1183 6.93608 13.7906H6.95953C7.11583 13.7282 7.26431 13.7126 7.40498 13.7438C7.56128 13.7594 7.69413 13.7984 7.80354 13.8608H7.82699L7.85043 13.8842C8.46 14.2431 9.10865 14.524 9.79637 14.7269C10.4997 14.9141 11.2343 15.0078 12.0002 15.0078C12.7348 15.0078 13.446 14.9141 14.1337 14.7269C14.837 14.524 15.4935 14.2431 16.1031 13.8842ZM11.9768 3.39803C11.0077 3.39803 10.1793 3.74133 9.49158 4.42793C8.81949 5.11452 8.48345 5.93376 8.48345 6.88563C8.48345 7.85311 8.81949 8.68015 9.49158 9.36675C10.1793 10.0533 11.0077 10.3966 11.9768 10.3966C12.9458 10.3966 13.7664 10.0533 14.4385 9.36675C15.1262 8.68015 15.4701 7.85311 15.4701 6.88563C15.4701 5.93376 15.1262 5.11452 14.4385 4.42793C13.7664 3.74133 12.9458 3.39803 11.9768 3.39803ZM6.98297 6.88563C6.98297 6.19904 7.11583 5.55145 7.38154 4.94288C7.63161 4.34991 7.98329 3.82715 8.43656 3.37462C8.88983 2.9221 9.42125 2.56319 10.0308 2.29792C10.6404 2.03264 11.289 1.9 11.9768 1.9C12.6645 1.9 13.3131 2.03264 13.9227 2.29792C14.5323 2.56319 15.0637 2.9221 15.5169 3.37462C15.9702 3.82715 16.3219 4.34991 16.572 4.94288C16.8377 5.55145 16.9705 6.19904 16.9705 6.88563C16.9705 7.58783 16.8377 8.23542 16.572 8.82839C16.3219 9.43697 15.9702 9.96752 15.5169 10.42C15.0637 10.8726 14.5323 11.2315 13.9227 11.4968C13.3131 11.762 12.6645 11.8947 11.9768 11.8947C11.289 11.8947 10.6404 11.762 10.0308 11.4968C9.42125 11.2315 8.88983 10.8726 8.43656 10.42C7.98329 9.96752 7.63161 9.43697 7.38154 8.82839C7.11583 8.23542 6.98297 7.58783 6.98297 6.88563Z" fill="currentColor"/>
</svg>
