<svg width="100%" height="100%" viewBox="0 0 24 24" fill="none" xmlns="http://www.w3.org/2000/svg">
<path d="M12 2.23001C13.3881 2.23001 14.6882 2.49394 15.9003 3.0218C17.1124 3.54966 18.1681 4.27302 19.0674 5.19189C19.9863 6.0912 20.7097 7.14692 21.2375 8.35904C21.7458 9.57116 22 10.8713 22 12.2593C22 13.3346 21.8436 14.361 21.5308 15.3385C21.1984 16.3356 20.7292 17.2544 20.1232 18.0951C19.5367 18.9162 18.8231 19.6494 17.9824 20.2945C17.1417 20.9201 16.2131 21.3991 15.1965 21.7315C14.9423 21.7901 14.7566 21.7608 14.6393 21.6435C14.5415 21.5262 14.4927 21.3991 14.4927 21.2623C14.4927 21.1059 14.4927 20.7833 14.4927 20.2945C14.5122 19.7862 14.522 19.1899 14.522 18.5057C14.522 18.0365 14.4536 17.6552 14.3167 17.362C14.1799 17.0492 14.0235 16.8146 13.8475 16.6582C14.9619 16.5409 15.998 16.1694 16.956 15.5438C17.914 14.9182 18.393 13.6474 18.393 11.7315C18.393 11.1645 18.305 10.666 18.129 10.2359C17.9531 9.78622 17.6989 9.38544 17.3666 9.03353C17.4252 8.91623 17.4936 8.62297 17.5718 8.15376C17.65 7.66501 17.5523 7.06872 17.2786 6.36491C17.2786 6.36491 17.0538 6.37468 16.6041 6.39423C16.174 6.41378 15.48 6.74614 14.522 7.3913C14.131 7.29355 13.7204 7.21535 13.2903 7.1567C12.8798 7.09805 12.4594 7.06872 12.0293 7.06872C11.5992 7.06872 11.1691 7.09805 10.739 7.1567C10.3284 7.21535 9.92766 7.29355 9.53666 7.3913C8.57869 6.74614 7.87488 6.41378 7.42522 6.39423C6.99511 6.37468 6.78006 6.36491 6.78006 6.36491C6.50635 7.06872 6.4086 7.66501 6.4868 8.15376C6.565 8.62297 6.62366 8.91623 6.66276 9.03353C6.34995 9.38544 6.0958 9.78622 5.90029 10.2359C5.72434 10.6855 5.63636 11.1841 5.63636 11.7315C5.63636 13.6474 6.11535 14.9182 7.07331 15.5438C8.05083 16.1694 9.09677 16.5409 10.2111 16.6582C10.0547 16.795 9.91789 16.971 9.80059 17.186C9.68328 17.4011 9.60508 17.6748 9.56598 18.0071C9.27273 18.144 8.82307 18.232 8.21701 18.2711C7.61095 18.2906 7.08309 17.9289 6.63343 17.186C6.55523 17.0296 6.37928 16.8146 6.10557 16.5409C5.83187 16.2672 5.49951 16.1401 5.1085 16.1596C4.6784 16.1596 4.52199 16.2476 4.6393 16.4236C4.77615 16.5995 4.93255 16.7266 5.1085 16.8048C5.32356 16.9221 5.52884 17.1567 5.72434 17.5086C5.93939 17.841 6.07625 18.0853 6.1349 18.2417C6.23265 18.5154 6.50635 18.838 6.95601 19.2095C7.40567 19.5614 8.25611 19.6298 9.50733 19.4148C9.50733 19.8253 9.50733 20.2066 9.50733 20.5585C9.52688 20.9104 9.53666 21.145 9.53666 21.2623C9.53666 21.3991 9.47801 21.5262 9.3607 21.6435C9.26295 21.7608 9.087 21.7901 8.83284 21.7315C7.81623 21.3991 6.88759 20.9201 6.04692 20.2945C5.20626 19.6689 4.48289 18.9456 3.87683 18.1244C3.27077 17.2838 2.81134 16.3649 2.49853 15.3678C2.16618 14.3708 2 13.3346 2 12.2593C2 10.8713 2.25415 9.57116 2.76246 8.35904C3.29032 7.14692 4.00391 6.0912 4.90323 5.19189C5.82209 4.27302 6.88759 3.54966 8.09971 3.0218C9.31183 2.49394 10.6119 2.23001 12 2.23001Z" fill="currentColor"/>
</svg>
