<svg width="100%" height="100%" viewBox="0 0 24 24" fill="none" xmlns="http://www.w3.org/2000/svg">
<path d="M21.3281 2.67188C21.5156 2.84375 21.6094 3.05469 21.6094 3.30469C21.6094 3.55469 21.5156 3.76562 21.3281 3.9375L19.5938 5.67188C20.25 6.60938 20.5234 7.66406 20.4141 8.83594C20.3203 9.99219 19.8594 10.9844 19.0312 11.8125L18.2812 12.5625C18.0469 12.8125 17.75 12.9375 17.3906 12.9375C17.0469 12.9375 16.75 12.8125 16.5 12.5625L11.4375 7.5C11.1875 7.25 11.0625 6.95312 11.0625 6.60938C11.0625 6.25 11.1875 5.95312 11.4375 5.71875L12.1641 4.96875C12.2734 4.875 12.3828 4.78125 12.4922 4.6875C12.6016 4.59375 12.7188 4.5 12.8438 4.40625C13.6719 3.84375 14.5859 3.5625 15.5859 3.5625C16.5859 3.5625 17.5 3.84375 18.3281 4.40625L20.0625 2.67188C20.2344 2.48438 20.4453 2.39062 20.6953 2.39062C20.9453 2.39062 21.1562 2.48438 21.3281 2.67188ZM10.5469 10.1719C10.7188 10.3438 10.8047 10.5547 10.8047 10.8047C10.8047 11.0547 10.7188 11.2656 10.5469 11.4375L9 12.9609L11.0391 15L12.5625 13.4531C12.7344 13.2812 12.9453 13.1953 13.1953 13.1953C13.4453 13.1953 13.6562 13.2812 13.8281 13.4531C14.0156 13.6406 14.1094 13.8594 14.1094 14.1094C14.1094 14.3594 14.0156 14.5703 13.8281 14.7422L12.3047 16.2656C12.5859 16.625 12.7188 17.0312 12.7031 17.4844C12.6875 17.9375 12.5156 18.3281 12.1875 18.6562L11.8125 19.0312C10.9844 19.8594 9.98438 20.3281 8.8125 20.4375C7.65625 20.5312 6.60938 20.25 5.67188 19.5938L3.9375 21.3281C3.76562 21.5156 3.55469 21.6094 3.30469 21.6094C3.05469 21.6094 2.84375 21.5156 2.67188 21.3281C2.48438 21.1562 2.39062 20.9453 2.39062 20.6953C2.39062 20.4453 2.48438 20.2344 2.67188 20.0625L4.40625 18.3281C3.75 17.3906 3.46875 16.3438 3.5625 15.1875C3.67188 14.0156 4.14062 13.0156 4.96875 12.1875L5.34375 11.8125C5.67188 11.4844 6.0625 11.3125 6.51562 11.2969C6.96875 11.2812 7.375 11.4141 7.73438 11.6953L9.25781 10.1719C9.42969 9.98438 9.64062 9.89062 9.89062 9.89062C10.1406 9.89062 10.3594 9.98438 10.5469 10.1719Z" fill="currentColor"/>
</svg>
