<svg width="100%" height="100%" viewBox="0 0 24 24" fill="none" xmlns="http://www.w3.org/2000/svg">
<path d="M12 22C10.6261 22 9.33021 21.7346 8.11241 21.2037C6.89461 20.6885 5.83294 19.9781 4.9274 19.0726C4.02186 18.1671 3.31148 17.1054 2.79625 15.8876C2.26542 14.6698 2 13.3739 2 12C2 10.6261 2.26542 9.33021 2.79625 8.11241C3.31148 6.89461 4.02186 5.83294 4.9274 4.9274C5.83294 4.02186 6.89461 3.31148 8.11241 2.79625C9.33021 2.26542 10.6261 2 12 2C13.3739 2 14.6698 2.26542 15.8876 2.79625C17.1054 3.31148 18.1671 4.02186 19.0726 4.9274C19.9781 5.83294 20.6885 6.89461 21.2037 8.11241C21.7346 9.33021 22 10.6261 22 12C22 13.3739 21.7346 14.6698 21.2037 15.8876C20.6885 17.1054 19.9781 18.1671 19.0726 19.0726C18.1671 19.9781 17.1054 20.6885 15.8876 21.2037C14.6698 21.7346 13.3739 22 12 22ZM10.5012 16.918L18.2061 9.21311L16.8009 7.80796L10.5012 14.0843L7.71429 11.2974L6.30913 12.7026L10.5012 16.918Z" fill="currentColor"/>
</svg>
