<svg width="100%" height="100%" viewBox="0 0 44 44" fill="none" xmlns="http://www.w3.org/2000/svg">
<mask id="mask0_6397_25467" style="mask-type:alpha" maskUnits="userSpaceOnUse" x="0" y="0" width="44" height="44">
<path d="M43.9895 22.007C44.0481 20.9672 43.8575 20.1764 43.5202 19.5173C42.6109 17.5695 40.6165 17.0862 39.6486 13.9668C39.2379 12.8831 39.2673 11.8286 39.2526 10.7888C39.2673 10.0126 39.2526 9.25107 38.9446 8.46022C38.71 7.78655 38.2994 7.11287 37.5514 6.43919C37.5074 6.39525 37.4634 6.35132 37.4194 6.30738C37.0381 5.89732 36.6422 5.60441 36.2316 5.38473C35.117 4.71106 34.1491 4.71106 33.0932 4.71106C32.0666 4.65248 31.0107 4.60854 29.9988 4.22777C26.7138 3.01221 26.3032 1.31337 24.514 0.493242C23.8541 0.156402 23.0622 -0.0486285 22.0209 0.00995231C21.9183 0.00995231 21.8303 0.0245984 21.7276 0.0245984C21.1703 0.00995321 20.6717 0.0978244 20.2318 0.244276C18.0264 0.823856 17.5723 2.37825 15.3189 3.71607C15.2708 3.74459 15.2189 3.76898 15.1689 3.79376V3.79376C15.1328 3.81162 15.0947 3.82734 15.0587 3.84534C12.3496 5.19905 10.7462 4.46513 8.99819 4.91609C8.16227 5.07719 7.32636 5.48725 6.46111 6.45384V6.45384C6.40355 6.54005 6.31929 6.60595 6.24488 6.67811C5.76607 7.14243 5.44708 7.62029 5.22922 8.12339C4.04134 10.3348 5.06791 11.9018 3.52806 15.4899C3.4254 15.7242 3.30808 15.9293 3.17609 16.1343C2.09086 17.7453 0.902976 18.2725 0.345697 19.8542C0.0963879 20.44 -0.0355975 21.1283 0.00839824 22.007C-0.0355975 22.8711 0.0963915 23.5594 0.331035 24.1452C0.90298 25.7708 2.13486 26.2834 3.23475 27.9823C3.33741 28.1434 3.4254 28.3191 3.5134 28.5095C5.02392 32.0097 4.07067 33.5914 5.14123 35.7296C5.39054 36.3593 5.78651 36.9744 6.44644 37.5456C6.47578 37.5749 6.51976 37.6042 6.54909 37.6334C7.16503 38.2925 7.76631 38.6733 8.36759 38.8929C10.3914 39.7424 12.0486 38.644 15.0989 40.1964C15.3336 40.2989 15.5536 40.4307 15.7589 40.5625C17.416 41.6902 18.032 42.9057 19.6012 43.5355C20.2611 43.8577 21.0384 44.048 21.9916 43.9895V43.9895C22.2068 43.9895 22.4224 43.9778 22.6374 43.9667C23.0154 43.9472 23.3603 43.8927 23.6787 43.8031C23.688 43.8004 23.6977 43.7991 23.7074 43.7991V43.7991V43.7991C23.7172 43.7991 23.7272 43.7978 23.7367 43.7954C26.23 43.1616 26.2664 41.1603 29.9695 39.8009C31.2014 39.3323 32.4773 39.3762 33.7091 39.2737C34.3691 39.2591 35.0143 39.1858 35.6889 38.8783C36.3342 38.6293 36.9502 38.2339 37.5368 37.5749C37.5954 37.5163 37.6688 37.4431 37.7274 37.3845C38.226 36.9012 38.5633 36.4033 38.7833 35.9053C39.2233 34.9827 39.2526 34.1332 39.2379 33.2252C39.2526 32.1854 39.2233 31.131 39.6339 30.0472C40.6018 26.9425 42.5816 26.4592 43.4909 24.5406C43.8575 23.8523 44.0481 23.0615 43.9895 22.007Z" fill="url(#paint0_radial_6397_25467)"/>
<path d="M43.9895 22.007C44.0481 20.9672 43.8575 20.1764 43.5202 19.5173C42.6109 17.5695 40.6165 17.0862 39.6486 13.9668C39.2379 12.8831 39.2673 11.8286 39.2526 10.7888C39.2673 10.0126 39.2526 9.25107 38.9446 8.46022C38.71 7.78655 38.2994 7.11287 37.5514 6.43919C37.5074 6.39525 37.4634 6.35132 37.4194 6.30738C37.0381 5.89732 36.6422 5.60441 36.2316 5.38473C35.117 4.71106 34.1491 4.71106 33.0932 4.71106C32.0666 4.65248 31.0107 4.60854 29.9988 4.22777C26.7138 3.01221 26.3032 1.31337 24.514 0.493242C23.8541 0.156402 23.0622 -0.0486285 22.0209 0.00995231C21.9183 0.00995231 21.8303 0.0245984 21.7276 0.0245984C21.1703 0.00995321 20.6717 0.0978244 20.2318 0.244276C18.0264 0.823856 17.5723 2.37825 15.3189 3.71607C15.2708 3.74459 15.2189 3.76898 15.1689 3.79376V3.79376C15.1328 3.81162 15.0947 3.82734 15.0587 3.84534C12.3496 5.19905 10.7462 4.46513 8.99819 4.91609C8.16227 5.07719 7.32636 5.48725 6.46111 6.45384V6.45384C6.40355 6.54005 6.31929 6.60595 6.24488 6.67811C5.76607 7.14243 5.44708 7.62029 5.22922 8.12339C4.04134 10.3348 5.06791 11.9018 3.52806 15.4899C3.4254 15.7242 3.30808 15.9293 3.17609 16.1343C2.09086 17.7453 0.902976 18.2725 0.345697 19.8542C0.0963879 20.44 -0.0355975 21.1283 0.00839824 22.007C-0.0355975 22.8711 0.0963915 23.5594 0.331035 24.1452C0.90298 25.7708 2.13486 26.2834 3.23475 27.9823C3.33741 28.1434 3.4254 28.3191 3.5134 28.5095C5.02392 32.0097 4.07067 33.5914 5.14123 35.7296C5.39054 36.3593 5.78651 36.9744 6.44644 37.5456C6.47578 37.5749 6.51976 37.6042 6.54909 37.6334C7.16503 38.2925 7.76631 38.6733 8.36759 38.8929C10.3914 39.7424 12.0486 38.644 15.0989 40.1964C15.3336 40.2989 15.5536 40.4307 15.7589 40.5625C17.416 41.6902 18.032 42.9057 19.6012 43.5355C20.2611 43.8577 21.0384 44.048 21.9916 43.9895V43.9895C22.2068 43.9895 22.4224 43.9778 22.6374 43.9667C23.0154 43.9472 23.3603 43.8927 23.6787 43.8031C23.688 43.8004 23.6977 43.7991 23.7074 43.7991V43.7991V43.7991C23.7172 43.7991 23.7272 43.7978 23.7367 43.7954C26.23 43.1616 26.2664 41.1603 29.9695 39.8009C31.2014 39.3323 32.4773 39.3762 33.7091 39.2737C34.3691 39.2591 35.0143 39.1858 35.6889 38.8783C36.3342 38.6293 36.9502 38.2339 37.5368 37.5749C37.5954 37.5163 37.6688 37.4431 37.7274 37.3845C38.226 36.9012 38.5633 36.4033 38.7833 35.9053C39.2233 34.9827 39.2526 34.1332 39.2379 33.2252C39.2526 32.1854 39.2233 31.131 39.6339 30.0472C40.6018 26.9425 42.5816 26.4592 43.4909 24.5406C43.8575 23.8523 44.0481 23.0615 43.9895 22.007Z" fill="url(#paint1_radial_6397_25467)"/>
</mask>
<g mask="url(#mask0_6397_25467)">
<rect width="100%" height="100%" fill="url(#paint2_radial_6397_25467)"/>
</g>
<defs>
<radialGradient id="paint0_radial_6397_25467" cx="0" cy="0" r="1" gradientUnits="userSpaceOnUse" gradientTransform="translate(22 -0.138984) rotate(90) scale(44.278)">
<stop stop-color="#2E2E2E"/>
<stop offset="1" stop-color="#080808"/>
</radialGradient>
<radialGradient id="paint1_radial_6397_25467" cx="0" cy="0" r="1" gradientUnits="userSpaceOnUse" gradientTransform="translate(42.9972 -4.3621) rotate(129.211) scale(77.0079 242.054)">
<stop stop-color="#8049F2"/>
<stop offset="1" stop-color="#6D4EAE" stop-opacity="0"/>
</radialGradient>
<radialGradient id="paint2_radial_6397_25467" cx="0" cy="0" r="1" gradientUnits="userSpaceOnUse" gradientTransform="translate(42.9972 -4.3621) rotate(129.211) scale(77.0079 242.054)">
<stop stop-color="#160F1F"/>
<stop offset="1" stop-color="#7132F5"/>
</radialGradient>
</defs>
</svg>
