<svg width="100%" height="100%" viewBox="0 0 24 24" fill="none" xmlns="http://www.w3.org/2000/svg">
<path d="M18.9585 5.63586C19.5256 6.46754 20.017 7.32758 20.4329 8.21597C20.8487 9.10435 21.1795 10.0211 21.4252 10.9662C21.6898 11.9113 21.86 12.8847 21.9356 13.8865C22.0301 14.9072 22.0206 15.9563 21.9072 17.0337C21.9072 17.0337 21.9072 17.0431 21.9072 17.062C21.9072 17.062 21.8978 17.062 21.8789 17.062C21.1228 17.6291 20.3195 18.13 19.4689 18.5647C18.6372 18.9806 17.7772 19.3208 16.8888 19.5854C16.8699 19.6043 16.8604 19.6138 16.8604 19.6138C16.8604 19.6138 16.851 19.6043 16.8321 19.5854C16.8321 19.5854 16.8226 19.5854 16.8037 19.5854C16.6147 19.3208 16.4351 19.0467 16.265 18.7632C16.0949 18.4797 15.9342 18.1962 15.783 17.9126C15.783 17.8937 15.783 17.8843 15.783 17.8843C15.783 17.8654 15.783 17.8559 15.783 17.8559C15.8019 17.8559 15.8114 17.8465 15.8114 17.8276C15.8114 17.8276 15.8208 17.8276 15.8397 17.8276C16.1043 17.7331 16.3595 17.6196 16.6052 17.4873C16.8699 17.355 17.1345 17.2227 17.3991 17.0904C17.3991 17.0715 17.3991 17.062 17.3991 17.062C17.418 17.062 17.4275 17.062 17.4275 17.062C17.4275 17.0431 17.4275 17.0337 17.4275 17.0337C17.4275 17.0148 17.418 17.0053 17.3991 17.0053C17.3991 16.9864 17.3991 16.977 17.3991 16.977C17.3424 16.9392 17.2857 16.9014 17.229 16.8636C17.1723 16.8258 17.125 16.7785 17.0872 16.7218C17.0872 16.7218 17.0778 16.7218 17.0589 16.7218C17.04 16.7218 17.0305 16.7218 17.0305 16.7218C16.2177 17.0998 15.3861 17.3834 14.5355 17.5724C13.7038 17.7614 12.8627 17.8559 12.0121 17.8559C11.1615 17.8559 10.3109 17.7614 9.46033 17.5724C8.60975 17.3834 7.77806 17.0998 6.96528 16.7218C6.96528 16.7218 6.95583 16.7218 6.93693 16.7218C6.91803 16.7218 6.90858 16.7218 6.90858 16.7218C6.85187 16.7785 6.79517 16.8258 6.73846 16.8636C6.68176 16.9014 6.6345 16.9392 6.5967 16.977C6.5967 16.977 6.58725 16.9864 6.56834 17.0053C6.56834 17.0053 6.56834 17.0148 6.56834 17.0337C6.56834 17.0337 6.56834 17.0431 6.56834 17.062C6.56834 17.062 6.56834 17.0715 6.56834 17.0904C6.58725 17.0904 6.5967 17.0904 6.5967 17.0904C6.84242 17.2227 7.0976 17.355 7.36222 17.4873C7.62685 17.6196 7.89148 17.7331 8.1561 17.8276C8.175 17.8276 8.18445 17.8276 8.18445 17.8276C8.18445 17.8465 8.18445 17.8559 8.18445 17.8559C8.18445 17.8559 8.18445 17.8654 8.18445 17.8843C8.18445 17.8843 8.18445 17.8937 8.18445 17.9126C8.03324 18.1962 7.87257 18.4797 7.70246 18.7632C7.53234 19.0467 7.35277 19.3208 7.16375 19.5854C7.16375 19.5854 7.1543 19.5854 7.1354 19.5854C7.1354 19.6043 7.12595 19.6138 7.10705 19.6138C6.19976 19.3303 5.32082 18.9806 4.47024 18.5647C3.63856 18.13 2.85413 17.6291 2.11696 17.062C2.09805 17.062 2.0886 17.062 2.0886 17.062C2.0886 17.0431 2.0886 17.0337 2.0886 17.0337C1.99409 16.0886 1.97519 15.153 2.0319 14.2268C2.0886 13.2817 2.23037 12.3366 2.45719 11.3915C2.68401 10.4464 3.00534 9.49184 3.42118 8.52785C3.85593 7.58275 4.39463 6.61876 5.03729 5.63586C5.03729 5.63586 5.04674 5.63586 5.06565 5.63586C5.70831 5.33343 6.36987 5.07826 7.05034 4.87034C7.73081 4.64351 8.42073 4.4734 9.1201 4.35999C9.139 4.35999 9.14845 4.35999 9.14845 4.35999C9.14845 4.35999 9.1579 4.35999 9.1768 4.35999C9.1768 4.35999 9.1768 4.36944 9.1768 4.38834C9.1957 4.38834 9.20515 4.38834 9.20515 4.38834C9.29966 4.55845 9.38472 4.72857 9.46033 4.89869C9.55484 5.06881 9.6399 5.24837 9.71551 5.43739C10.4716 5.32398 11.2277 5.26727 11.9837 5.26727C12.7587 5.26727 13.5242 5.32398 14.2803 5.43739C14.3559 5.24837 14.4315 5.06881 14.5071 4.89869C14.6016 4.72857 14.6961 4.55845 14.7907 4.38834C14.8096 4.36944 14.819 4.35999 14.819 4.35999C14.8379 4.35999 14.8474 4.35999 14.8474 4.35999C15.5656 4.4734 16.265 4.64351 16.9455 4.87034C17.6259 5.07826 18.2875 5.33343 18.9302 5.63586C18.9491 5.63586 18.9585 5.63586 18.9585 5.63586ZM8.66645 14.7655C9.1768 14.7655 9.60209 14.567 9.94233 14.1701C10.3015 13.7731 10.481 13.3006 10.481 12.7524C10.481 12.1854 10.3015 11.7128 9.94233 11.3348C9.60209 10.9378 9.1768 10.7394 8.66645 10.7394C8.175 10.7394 7.74971 10.9378 7.39058 11.3348C7.05034 11.7128 6.88023 12.1854 6.88023 12.7524C6.88023 13.3006 7.05034 13.7731 7.39058 14.1701C7.74971 14.567 8.175 14.7655 8.66645 14.7655ZM15.3294 14.7655C15.8397 14.7655 16.265 14.567 16.6052 14.1701C16.9455 13.7731 17.1156 13.3006 17.1156 12.7524C17.1345 12.1854 16.9644 11.7128 16.6052 11.3348C16.265 10.9378 15.8397 10.7394 15.3294 10.7394C14.819 10.7394 14.3937 10.9378 14.0535 11.3348C13.7133 11.7128 13.5431 12.1854 13.5431 12.7524C13.5431 13.3006 13.7133 13.7731 14.0535 14.1701C14.4126 14.567 14.8379 14.7655 15.3294 14.7655Z" fill="currentColor"/>
</svg>
