<svg width="100%" height="100%" viewBox="0 0 24 24" fill="none" xmlns="http://www.w3.org/2000/svg">
<path d="M5.69531 3C5.91406 3 6.09375 3.07812 6.23438 3.23438C6.375 3.375 6.44531 3.54688 6.44531 3.75V10.2422C6.44531 10.4609 6.375 10.6406 6.23438 10.7812C6.09375 10.9219 5.91406 10.9922 5.69531 10.9922C5.49219 10.9922 5.3125 10.9219 5.15625 10.7812C5.01562 10.6406 4.94531 10.4609 4.94531 10.2422V3.75C4.94531 3.54688 5.01562 3.375 5.15625 3.23438C5.3125 3.07812 5.49219 3 5.69531 3ZM18.3047 3C18.5078 3 18.6797 3.07812 18.8203 3.23438C18.9766 3.375 19.0547 3.54688 19.0547 3.75V12.2578C19.0547 12.4609 18.9766 12.6406 18.8203 12.7969C18.6797 12.9375 18.5078 13.0078 18.3047 13.0078C18.0859 13.0078 17.9062 12.9375 17.7656 12.7969C17.625 12.6406 17.5547 12.4609 17.5547 12.2578V3.75C17.5547 3.54688 17.625 3.375 17.7656 3.23438C17.9062 3.07812 18.0859 3 18.3047 3ZM12 3.25781C12.2031 3.25781 12.375 3.32812 12.5156 3.46875C12.6719 3.60938 12.75 3.78906 12.75 4.00781V8.50781H13.9922C14.2109 8.50781 14.3906 8.57812 14.5312 8.71875C14.6719 8.85938 14.7422 9.03906 14.7422 9.25781C14.7422 9.46094 14.6719 9.64062 14.5312 9.79688C14.3906 9.9375 14.2109 10.0078 13.9922 10.0078H10.0078C9.78906 10.0078 9.60938 9.9375 9.46875 9.79688C9.32812 9.64062 9.25781 9.46094 9.25781 9.25781C9.25781 9.03906 9.32812 8.85938 9.46875 8.71875C9.60938 8.57812 9.78906 8.50781 10.0078 8.50781H11.25V4.00781C11.25 3.78906 11.3203 3.60938 11.4609 3.46875C11.6172 3.32812 11.7969 3.25781 12 3.25781ZM12 12C12.2031 12 12.375 12.0781 12.5156 12.2344C12.6719 12.375 12.75 12.5469 12.75 12.75V19.9922C12.75 20.2109 12.6719 20.3906 12.5156 20.5312C12.375 20.6719 12.2031 20.7422 12 20.7422C11.7969 20.7422 11.6172 20.6719 11.4609 20.5312C11.3203 20.3906 11.25 20.2109 11.25 19.9922V12.75C11.25 12.5469 11.3203 12.375 11.4609 12.2344C11.6172 12.0781 11.7969 12 12 12ZM3 13.7578C3 13.5391 3.07031 13.3594 3.21094 13.2188C3.36719 13.0781 3.54688 13.0078 3.75 13.0078H7.75781C7.96094 13.0078 8.13281 13.0781 8.27344 13.2188C8.42969 13.3594 8.50781 13.5391 8.50781 13.7578C8.50781 13.9609 8.42969 14.1406 8.27344 14.2969C8.13281 14.4375 7.96094 14.5078 7.75781 14.5078H6.44531V20.25C6.44531 20.4531 6.375 20.6328 6.23438 20.7891C6.09375 20.9297 5.91406 21 5.69531 21C5.49219 21 5.3125 20.9297 5.15625 20.7891C5.01562 20.6328 4.94531 20.4531 4.94531 20.25V14.5078H3.75C3.54688 14.5078 3.36719 14.4375 3.21094 14.2969C3.07031 14.1406 3 13.9609 3 13.7578ZM15.4922 15.75C15.4922 15.5469 15.5625 15.375 15.7031 15.2344C15.8594 15.0781 16.0391 15 16.2422 15H20.25C20.4531 15 20.625 15.0781 20.7656 15.2344C20.9219 15.375 21 15.5469 21 15.75C21 15.9531 20.9219 16.1328 20.7656 16.2891C20.625 16.4297 20.4531 16.5 20.25 16.5H19.0547V20.25C19.0547 20.4531 18.9766 20.6328 18.8203 20.7891C18.6797 20.9297 18.5078 21 18.3047 21C18.0859 21 17.9062 20.9297 17.7656 20.7891C17.625 20.6328 17.5547 20.4531 17.5547 20.25V16.5H16.2422C16.0391 16.5 15.8594 16.4297 15.7031 16.2891C15.5625 16.1328 15.4922 15.9531 15.4922 15.75Z" fill="currentColor"/>
</svg>
