<svg width="100%" height="100%" viewBox="0 0 24 24" fill="none" xmlns="http://www.w3.org/2000/svg">
<path d="M15.5 13C14.6716 13 14 13.6716 14 14.5C14 15.3284 14.6716 16 15.5 16C16.3284 16 17 15.3284 17 14.5C17 13.6716 16.3284 13 15.5 13Z" fill="currentColor"/>
<path fill-rule="evenodd" clip-rule="evenodd" d="M2.75 6.5C2.75 4.42893 4.42893 2.75 6.5 2.75H15.4688C16.4525 2.75 17.25 3.54749 17.25 4.53125V7.75H19.25C20.3546 7.75 21.25 8.64543 21.25 9.75V19.25C21.25 20.3546 20.3546 21.25 19.25 21.25H6.75C4.54086 21.25 2.75 19.4591 2.75 17.25V6.5ZM4.75 9.50092V17.25C4.75 18.3546 5.64543 19.25 6.75 19.25H19.25V9.75H6C5.55705 9.75 5.1348 9.66139 4.75 9.50092ZM4.75 6.5C4.75 7.19036 5.30964 7.75 6 7.75H15.25V4.75H6.5C5.5335 4.75 4.75 5.5335 4.75 6.5Z" fill="currentColor"/>
</svg>